<svg width="120" height="120" viewBox="0 0 120 120" xmlns="http://www.w3.org/2000/svg">
  <!-- Outer ring segments representing node groups -->
  <path d="M 60 10 A 50 50 0 0 1 103.3 35 L 88.3 42 A 35 35 0 0 0 60 25 Z" fill="#2684FF"/>
  <path d="M 103.3 35 A 50 50 0 0 1 103.3 85 L 88.3 78 A 35 35 0 0 0 88.3 42 Z" fill="#36B37E"/>
  <path d="M 103.3 85 A 50 50 0 0 1 16.7 85 L 31.7 78 A 35 35 0 0 0 88.3 78 Z" fill="#FFAB00"/>
  <path d="M 16.7 85 A 50 50 0 0 1 16.7 35 L 31.7 42 A 35 35 0 0 0 31.7 78 Z" fill="#2684FF" opacity="0.7"/>
  <path d="M 16.7 35 A 50 50 0 0 1 60 10 L 60 25 A 35 35 0 0 0 31.7 42 Z" fill="#36B37E" opacity="0.7"/>
  
  <!-- Central core -->
  <circle cx="60" cy="60" r="18" fill="#0052CC"/>
  <circle cx="60" cy="60" r="10" fill="none" stroke="white" stroke-width="2"/>
</svg>